<svg width="364" height="451" viewBox="0 0 364 451" fill="none" xmlns="http://www.w3.org/2000/svg">
<g clip-path="url(#clip0_2970_15771)">
<path d="M159.578 218.566C173.527 205.365 167.772 152.471 167.772 152.471C167.772 152.471 115.296 146.433 101.345 159.634C87.3941 172.834 92.1151 185.538 111.977 205.273C131.838 225.009 145.63 231.767 159.578 218.566Z" fill="white" stroke="white" stroke-width="6" stroke-linejoin="round"/>
<path d="M98.7313 218.795C141.129 260.931 209.871 260.931 252.269 218.795C294.667 176.659 294.667 108.342 252.269 66.2063C209.871 24.0702 141.129 24.0702 98.7313 66.2063C56.3331 108.342 56.3331 176.659 98.7313 218.795Z" stroke="white" stroke-width="10"/>
<path d="M252.106 159.982C238.823 146.119 185.6 151.839 185.6 151.839C185.6 151.839 179.525 203.99 192.808 217.855C206.091 231.72 218.873 227.028 238.731 207.289C258.589 187.551 265.389 173.844 252.106 159.982Z" fill="white" stroke="white" stroke-width="6" stroke-linejoin="round"/>
<path d="M100.63 125.195C113.913 139.057 167.136 133.338 167.136 133.338C167.136 133.338 173.212 81.1866 159.929 67.3218C146.646 53.4569 133.864 58.1487 114.005 77.8873C94.1469 97.626 87.3468 111.333 100.63 125.195Z" stroke="white" stroke-width="10" stroke-linejoin="round"/>
<path d="M193.915 67.3628C179.967 80.5638 185.721 133.458 185.721 133.458C185.721 133.458 238.197 139.496 252.148 126.295C266.099 113.094 261.378 100.391 241.516 80.6555C221.655 60.9199 207.863 54.1619 193.915 67.3628Z" fill="white" stroke="white" stroke-width="6" stroke-linejoin="round"/>
<path d="M20.365 393C18.847 393 17.527 392.439 16.405 391.317C15.349 390.195 14.821 388.875 14.821 387.357V326.373C14.821 324.855 15.349 323.535 16.405 322.413C17.527 321.291 18.847 320.73 20.365 320.73H23.533C25.051 320.73 26.371 321.291 27.493 322.413C28.615 323.535 29.176 324.855 29.176 326.373V380.625C29.176 381.219 29.44 381.516 29.968 381.516H55.411C56.929 381.516 58.216 382.077 59.272 383.199C60.394 384.255 60.955 385.542 60.955 387.06V387.357C60.955 388.875 60.394 390.195 59.272 391.317C58.216 392.439 56.929 393 55.411 393H20.365ZM88.7711 393.99C82.9631 393.99 78.7391 392.406 76.0991 389.238C73.4591 386.004 72.1391 380.559 72.1391 372.903V347.163C72.1391 345.645 72.7001 344.325 73.8221 343.203C74.9441 342.081 76.2641 341.52 77.7821 341.52H79.3661C80.8841 341.52 82.2041 342.081 83.3261 343.203C84.4481 344.325 85.0091 345.645 85.0091 347.163V371.517C85.0091 376.137 85.6361 379.338 86.8901 381.12C88.1441 382.902 90.2561 383.793 93.2261 383.793C95.9321 383.793 98.4401 382.638 100.75 380.328C103.126 378.018 104.314 375.543 104.314 372.903V347.163C104.314 345.645 104.875 344.325 105.997 343.203C107.119 342.081 108.439 341.52 109.957 341.52H111.937C113.455 341.52 114.742 342.081 115.798 343.203C116.92 344.325 117.481 345.645 117.481 347.163V387.357C117.481 388.875 116.92 390.195 115.798 391.317C114.742 392.439 113.455 393 111.937 393H110.65C109.066 393 107.713 392.472 106.591 391.416C105.535 390.294 104.974 388.941 104.908 387.357L104.809 386.664C104.809 386.598 104.776 386.565 104.71 386.565C104.644 386.565 104.578 386.598 104.512 386.664C100.024 391.548 94.7771 393.99 88.7711 393.99ZM140.244 393C138.726 393 137.406 392.439 136.284 391.317C135.162 390.195 134.601 388.875 134.601 387.357V324.393C134.601 322.875 135.162 321.555 136.284 320.433C137.406 319.311 138.726 318.75 140.244 318.75H142.818C144.336 318.75 145.656 319.311 146.778 320.433C147.9 321.555 148.461 322.875 148.461 324.393V387.357C148.461 388.875 147.9 390.195 146.778 391.317C145.656 392.439 144.336 393 142.818 393H140.244ZM189.842 368.25C180.404 368.25 175.685 371.154 175.685 376.962C175.685 379.074 176.279 380.79 177.467 382.11C178.721 383.43 180.305 384.09 182.219 384.09C185.981 384.09 189.017 382.935 191.327 380.625C193.637 378.249 194.792 375.015 194.792 370.923V369.141C194.792 368.547 194.495 368.25 193.901 368.25H189.842ZM178.655 393.99C174.167 393.99 170.438 392.538 167.468 389.634C164.564 386.664 163.112 382.836 163.112 378.15C163.112 372.408 165.29 367.953 169.646 364.785C174.068 361.617 180.8 360.033 189.842 360.033H193.901C194.495 360.033 194.792 359.736 194.792 359.142V358.35C194.792 355.314 194.066 353.202 192.614 352.014C191.162 350.76 188.588 350.133 184.892 350.133C181.064 350.133 176.378 350.826 170.834 352.212C169.646 352.542 168.557 352.344 167.567 351.618C166.577 350.826 166.082 349.803 166.082 348.549C166.082 347.031 166.544 345.678 167.468 344.49C168.392 343.236 169.58 342.477 171.032 342.213C176.048 341.091 180.767 340.53 185.189 340.53C193.637 340.53 199.544 342.048 202.91 345.084C206.276 348.12 207.959 353.433 207.959 361.023V387.357C207.959 388.875 207.398 390.195 206.276 391.317C205.22 392.439 203.933 393 202.415 393H201.326C199.742 393 198.389 392.472 197.267 391.416C196.145 390.294 195.551 388.941 195.485 387.357V385.971C195.485 385.905 195.452 385.872 195.386 385.872C195.254 385.872 195.188 385.905 195.188 385.971C191.162 391.317 185.651 393.99 178.655 393.99ZM243.069 350.43C235.479 350.43 231.684 356.04 231.684 367.26C231.684 372.87 232.707 377.094 234.753 379.932C236.799 382.704 239.571 384.09 243.069 384.09C246.171 384.09 248.844 383.067 251.088 381.021C253.332 378.975 254.454 376.632 254.454 373.992V360.528C254.454 357.888 253.332 355.545 251.088 353.499C248.844 351.453 246.171 350.43 243.069 350.43ZM239.109 393.99C233.235 393.99 228.351 391.614 224.457 386.862C220.563 382.044 218.616 375.51 218.616 367.26C218.616 358.746 220.464 352.179 224.16 347.559C227.922 342.873 232.905 340.53 239.109 340.53C244.719 340.53 249.669 342.576 253.959 346.668C254.025 346.734 254.091 346.767 254.157 346.767C254.223 346.767 254.256 346.734 254.256 346.668V324.393C254.256 322.875 254.817 321.555 255.939 320.433C257.061 319.311 258.381 318.75 259.899 318.75H261.879C263.397 318.75 264.717 319.311 265.839 320.433C266.961 321.555 267.522 322.875 267.522 324.393V387.357C267.522 388.875 266.961 390.195 265.839 391.317C264.717 392.439 263.397 393 261.879 393H260.79C259.206 393 257.853 392.472 256.731 391.416C255.675 390.294 255.114 388.941 255.048 387.357L254.949 386.664C254.949 386.598 254.916 386.565 254.85 386.565C254.784 386.565 254.718 386.598 254.652 386.664C250.296 391.548 245.115 393.99 239.109 393.99ZM306.481 368.25C297.043 368.25 292.324 371.154 292.324 376.962C292.324 379.074 292.918 380.79 294.106 382.11C295.36 383.43 296.944 384.09 298.858 384.09C302.62 384.09 305.656 382.935 307.966 380.625C310.276 378.249 311.431 375.015 311.431 370.923V369.141C311.431 368.547 311.134 368.25 310.54 368.25H306.481ZM295.294 393.99C290.806 393.99 287.077 392.538 284.107 389.634C281.203 386.664 279.751 382.836 279.751 378.15C279.751 372.408 281.929 367.953 286.285 364.785C290.707 361.617 297.439 360.033 306.481 360.033H310.54C311.134 360.033 311.431 359.736 311.431 359.142V358.35C311.431 355.314 310.705 353.202 309.253 352.014C307.801 350.76 305.227 350.133 301.531 350.133C297.703 350.133 293.017 350.826 287.473 352.212C286.285 352.542 285.196 352.344 284.206 351.618C283.216 350.826 282.721 349.803 282.721 348.549C282.721 347.031 283.183 345.678 284.107 344.49C285.031 343.236 286.219 342.477 287.671 342.213C292.687 341.091 297.406 340.53 301.828 340.53C310.276 340.53 316.183 342.048 319.549 345.084C322.915 348.12 324.598 353.433 324.598 361.023V387.357C324.598 388.875 324.037 390.195 322.915 391.317C321.859 392.439 320.572 393 319.054 393H317.965C316.381 393 315.028 392.472 313.906 391.416C312.784 390.294 312.19 388.941 312.124 387.357V385.971C312.124 385.905 312.091 385.872 312.025 385.872C311.893 385.872 311.827 385.905 311.827 385.971C307.801 391.317 302.29 393.99 295.294 393.99Z" fill="#FFFEFE"/>
</g>
<defs>
<clipPath id="clip0_2970_15771">
<rect width="364" height="451" fill="white"/>
</clipPath>
</defs>
</svg>
