<svg width="321" height="319" viewBox="0 0 321 319" fill="none" xmlns="http://www.w3.org/2000/svg">
<path d="M144.578 235.566C158.527 222.365 152.772 169.471 152.772 169.471C152.772 169.471 100.296 163.433 86.3452 176.634C72.3941 189.834 77.1151 202.538 96.9765 222.273C116.838 242.009 130.63 248.767 144.578 235.566Z" fill="#FFBA00" stroke="#FFBA00" stroke-width="6" stroke-linejoin="round"/>
<path d="M83.7313 235.795C126.129 277.931 194.871 277.931 237.269 235.795C279.667 193.659 279.667 125.342 237.269 83.2063C194.871 41.0702 126.129 41.0702 83.7313 83.2063C41.3331 125.342 41.3331 193.659 83.7313 235.795Z" stroke="#FFBA00" stroke-width="10"/>
<path d="M85.6299 142.195C98.9129 156.057 152.136 150.338 152.136 150.338C152.136 150.338 158.212 98.1866 144.929 84.3218C131.646 70.4569 118.864 75.1487 99.0052 94.8873C79.1469 114.626 72.3468 128.333 85.6299 142.195Z" fill="#FFBA00" fill-opacity="0.02" stroke="#FFBA00" stroke-width="10" stroke-linejoin="round"/>
<path d="M178.915 84.3628C164.967 97.5638 170.721 150.458 170.721 150.458C170.721 150.458 223.197 156.496 237.148 143.295C251.099 130.094 246.378 117.391 226.516 97.6555C206.655 77.9199 192.863 71.1619 178.915 84.3628Z" fill="#FFBA00" stroke="#FFBA00" stroke-width="6" stroke-linejoin="round"/>
</svg>
